<svg width="64" height="64" xmlns="http://www.w3.org/2000/svg">
 <g>
  <title>Layer 1</title>
  <path id="svg_1" d="m32,49.93782c-13.63975,0 -24.68794,-9.81748 -24.68794,-21.93782c0,-12.12034 11.04819,-21.93782 24.68794,-21.93782c13.63975,0 24.68794,9.81748 24.68794,21.93782c0,12.12034 -11.04819,21.93782 -24.68794,21.93782z" opacity="undefined" stroke-width="0" stroke="#000" fill="#002d84"/>
  <path stroke="#000" id="svg_9" d="m27.95047,45.50529c0,0 2.81214,-2.89966 2.81214,3.92306c0,6.82271 -4.1442,9.21066 -4.2626,9.0401c0.1184,0.17056 10.78951,-3.00492 11.08551,-10.85104c0.29602,-7.84611 -0.1626,-3.64723 -0.1626,-3.64723" opacity="NaN" stroke-width="0" fill="#002d84"/>
  <path stroke="#000" id="svg_10" d="m18.19478,34.125c0,0 -0.28642,3.30523 -2.67322,3.30523c-2.38681,0 2.48228,-0.07345 2.57775,2.64418c0.09547,2.71763 0.38189,-2.20348 3.15058,-2.20348c1.38435,0 -1.0251,-0.39268 -2.13497,-1.32916c-1.10986,-0.93648 -0.92015,-2.41676 -0.92015,-2.41676l0.00001,-0.00001z" opacity="NaN" stroke-width="0" fill="#ffffff"/>
  <path transform="rotate(77.4194 39.0781 14.8132)" stroke="#000" id="svg_11" d="m38.97477,9.875c0,0 -0.41798,4.82338 -3.90107,4.82338c-3.48311,0 3.62243,-0.10719 3.76175,3.8587c0.13932,3.96588 0.5573,-3.21559 4.59769,-3.21559c2.02021,0 -1.49593,-0.57304 -3.11558,-1.93967c-1.61964,-1.36662 -1.34279,-3.52682 -1.34279,-3.52682z" opacity="NaN" stroke-width="0" fill="#ffffff"/>
  <path transform="rotate(-73.8575 47.0156 23.1398)" stroke="#000" id="svg_12" d="m46.96819,20.875c0,0 -0.1917,2.21216 -1.78916,2.21216c-1.59747,0 1.66137,-0.04916 1.72527,1.76973c0.0639,1.81889 0.2556,-1.47478 2.10866,-1.47478c0.92653,0 -0.68608,-0.26282 -1.42891,-0.8896c-0.74282,-0.62678 -0.61585,-1.61752 -0.61585,-1.61752l-0.00001,0.00001z" opacity="NaN" stroke-width="0" fill="#ffffff"/>
  <path stroke="#000" id="svg_16" d="m38.53053,49.61426l0.29684,0.13493c0.10794,0.26986 -0.5667,-4.45266 -4.47965,-7.96083c-3.91295,-3.50816 -3.64309,-2.15887 -9.57998,-7.55604c-5.93689,-5.39717 -5.39717,-6.61153 -5.66703,-11.73884c-0.26986,-5.12731 5.12731,5.12731 4.99238,3.64309c-0.13493,-1.48422 -0.40479,-0.53972 -1.61915,-2.83351c-1.21436,-2.2938 -2.83351,-5.66703 -1.75408,-6.34167c1.07943,-0.67465 4.85745,-2.69858 10.38955,1.21436c5.5321,3.91295 6.6655,8.63547 9.06724,10.11969c2.40174,1.48422 5.37018,0.40479 6.04483,1.21436c0.67465,0.80958 -6.07182,2.56366 -4.72252,2.2938c1.34929,-0.26986 2.83351,12.41349 2.69858,13.89771c-0.13493,1.48422 0.40479,1.48422 0.16192,1.75408" opacity="NaN" stroke-width="0" fill="#ffffff"/>
 </g>

</svg>